# xmcd CD database file
#
# Track frame offsets:
#	150
#	13958
#	29478
#	49243
#	77980
#	94333
#	109860
#	129823
#	144130
#	156421
#
# Disc length: 2262 seconds
#
# Revision: 3
# Processed by: cddbd v1.5.2PL0 Copyright (c) Steve Scherf et al.
# Submitted via: CDex 1.76
#
DISCID=8308d40a
DTITLE=Sutters Mill - Songs from the Road
DYEAR=1900
DGENRE=Country
TTITLE0=Folsom Prison Blues
TTITLE1=Okie from Muskogee
TTITLE2=City of New Orleans
TTITLE3=Sutter's Mill
TTITLE4=Duellin' Banjo
TTITLE5=Much Too Young
TTITLE6=First Your Money
TTITLE7=Drivin' My Life Away
TTITLE8=On Teh Road Again
TTITLE9=The Loop
EXTD=
EXTT0=
EXTT1=
EXTT2=
EXTT3=
EXTT4=
EXTT5=
EXTT6=
EXTT7=
EXTT8=
EXTT9=
PLAYORDER=
